<svg xmlns="http://www.w3.org/2000/svg" viewBox="0 0 680 300" width="680" height="300" font-family="Segoe UI, Arial, sans-serif">
  <defs><marker id="arr" markerWidth="9" markerHeight="9" refX="7" refY="4.5" orient="auto"><path d="M0,0 L9,4.5 L0,9 Z" fill="#2c3e50"/></marker></defs>
  <rect x="0" y="0" width="680" height="300" fill="#ffffff"/>
  <text x="340" y="22" text-anchor="middle" font-size="15" font-weight="bold" fill="#1b2631">22.1 开环基线（48V 物理底座）</text>

  <!-- 母线 -->
  <line x1="40" y1="160" x2="640" y2="160" stroke="#2c3e50" stroke-width="4"/>
  <text x="340" y="152" text-anchor="middle" font-size="12" font-weight="bold" fill="#2c3e50">48V 直流母线</text>

  <!-- PV + Boost -->
  <rect x="40" y="40" width="90" height="38" rx="5" fill="#eafaf1" stroke="#1e8449" stroke-width="2"/>
  <text x="85" y="63" text-anchor="middle" font-size="12" fill="#1e8449">PV</text>
  <line x1="85" y1="78" x2="85" y2="100" stroke="#2c3e50" stroke-width="3"/>
  <rect x="40" y="100" width="90" height="38" rx="5" fill="#eaf2f8" stroke="#2471a3" stroke-width="2"/>
  <text x="85" y="123" text-anchor="middle" font-size="12" fill="#2471a3">Boost</text>
  <text x="85" y="138" text-anchor="middle" font-size="9" fill="#555">固定50%</text>
  <line x1="130" y1="119" x2="200" y2="119" stroke="#2c3e50" stroke-width="3"/>
  <line x1="200" y1="119" x2="200" y2="160" stroke="#2c3e50" stroke-width="3" marker-end="url(#arr)"/>

  <!-- 电池直挂（高亮） -->
  <rect x="270" y="100" width="130" height="44" rx="5" fill="#fdebd0" stroke="#ca6f1e" stroke-width="2"/>
  <text x="335" y="122" text-anchor="middle" font-size="12" font-weight="bold" fill="#ca6f1e">电池 48V</text>
  <text x="335" y="137" text-anchor="middle" font-size="9" fill="#555">直挂 → 钳位母线</text>
  <line x1="335" y1="100" x2="335" y2="160" stroke="#2c3e50" stroke-width="3" marker-end="url(#arr)"/>
  <text x="335" y="178" text-anchor="middle" font-size="10" fill="#ca6f1e">⚠ 谁定母线电压？无控制器，被电池被动钳死</text>

  <!-- 负载 -->
  <rect x="520" y="100" width="100" height="44" rx="5" fill="#fadbd8" stroke="#922b21" stroke-width="2"/>
  <text x="570" y="123" text-anchor="middle" font-size="12" fill="#922b21">负载</text>
  <line x1="570" y1="100" x2="570" y2="160" stroke="#2c3e50" stroke-width="3" marker-end="url(#arr)"/>

  <text x="40" y="210" font-size="10" fill="#777">本阶段无调压能力：光照/负载一变，母线随电池电压漂。是排除"接地唯一 / 物理域·信号域 / 传感器接法"三规的物理底座。</text>
  <rect x="40" y="225" width="600" height="26" rx="5" fill="#fef9e7" stroke="#b7950b" stroke-width="1.2"/>
  <text x="50" y="242" font-size="10" fill="#7d6608">物理底座三规：① 唯一接地 ② 物理域 vs 信号域分开 ③ 传感器"电流串、电压并"。</text>
</svg>
